<svg width="793" height="551.73152" xmlns="http://www.w3.org/2000/svg">

 <g>
  <title>background</title>
  <rect fill="none" id="canvas_background" height="602" width="802" y="-1" x="-1"/>
 </g>
 <g>
  <title>Layer 1</title>
  <ellipse id="svg_1" fill="#e6e6e6" ry="12" rx="158" cy="539.73152" cx="158"/>
  <path id="svg_2" fill="#2f2e41" d="m120.77227,122.41952c27.49676,-11.6953 61.74442,-4.28528 95.19092,0.85757c0.31124,-6.228 4.08385,-13.80782 0.132,-18.15284c-4.80115,-5.2788 -4.35917,-10.82529 -1.47008,-16.40375c7.38788,-14.265 -3.1969,-29.44375 -13.88428,-42.0647a23.66937,23.66937 0 0 0 -19.75537,-8.29179l-19.7975,1.41411a23.70939,23.70939 0 0 0 -21.05296,16.94614l0,0c-4.72724,6.42917 -7.25736,12.84055 -5.66438,19.21854c-7.08065,4.83882 -8.27029,10.67977 -5.08851,17.2644c2.698,4.14592 2.66928,8.18161 -0.12275,12.1056a55.89079,55.89079 0 0 0 -8.31011,16.5061l-0.17698,0.60062z"/>
  <path id="svg_3" fill="#2f2e41" d="m774.20889,476.96302l-560.41778,0a18.79111,18.79111 0 0 1 -18.79111,-18.79111l0,0q304.727,-35.41512 598,0l0,0a18.79111,18.79111 0 0 1 -18.79111,18.79111z"/>
  <path id="svg_4" fill="#3f3d56" d="m793,459.27726l-598,-1.10536l69.30611,-116.61553l0.3316,-0.55268l0,-257.00737a23.7522,23.7522 0 0 1 23.75418,-23.75418l407.90011,0a23.7522,23.7522 0 0 1 23.75418,23.75418l0,258.77592l72.95382,116.50502z"/>
  <path id="svg_5" fill="#fff" d="m286.85028,75.98921a7.74623,7.74623 0 0 0 -7.73753,7.73753l0,234.33641a7.74657,7.74657 0 0 0 7.73753,7.73752l412.29944,0a7.74691,7.74691 0 0 0 7.73753,-7.73752l0,-234.33641a7.74657,7.74657 0 0 0 -7.73753,-7.73753l-412.29944,0z"/>
  <path id="svg_6" fill="#2f2e41" d="m289.57794,357.5841a3.32522,3.32522 0 0 0 -3.01275,1.93006l-21.35537,46.42514a3.31594,3.31594 0 0 0 3.01221,4.7021l449.09208,0a3.3157,3.3157 0 0 0 2.96526,-4.79925l-23.21257,-46.42514a3.29926,3.29926 0 0 0 -2.96526,-1.83291l-404.5236,0z"/>
  <circle id="svg_7" fill="#fff" r="4.97412" cy="67.97967" cx="492.34196"/>
  <path id="svg_8" fill="#2f2e41" d="m448.19986,419.48428a3.32114,3.32114 0 0 0 -3.20165,2.4536l-5.35679,19.89649a3.31576,3.31576 0 0 0 3.20166,4.17856l101.874,0a3.31531,3.31531 0 0 0 3.13257,-4.40093l-6.88691,-19.89649a3.31784,3.31784 0 0 0 -3.13366,-2.23123l-89.62922,0z"/>
  <polygon id="svg_9" fill="#2f2e41" points="720.046 337.135 720.046 341.556 264.306 341.556 264.649 341.004 264.649 337.135 720.046 337.135"/>
  <circle id="svg_10" fill="#6c63ff" r="77.37523" cy="77.37523" cx="707.33457"/>
  <path id="svg_11" fill="#fff" d="m739.39,111.08875l-64.11089,0a4.42582,4.42582 0 0 1 -4.42144,-4.42145l0,-38.68764a4.42616,4.42616 0 0 1 4.42144,-4.42144l64.11089,0a4.42616,4.42616 0 0 1 4.42144,4.42144l0,38.68761a4.42582,4.42582 0 0 1 -4.42144,4.42148zm-64.11091,-43.10906l0,38.68761l64.11415,0l-0.00324,-38.68764l-64.11091,0.00003z"/>
  <path id="svg_12" fill="#fff" d="m727.23105,67.97966l-39.793,0l0,-17.68577c0,-12.80987 8.36792,-22.10721 19.89649,-22.10721s19.89648,9.29734 19.89648,22.10721l0.00003,17.68577zm-35.37153,-4.42144l30.95009,0l0,-13.26433c0,-10.413 -6.36338,-17.68576 -15.475,-17.68576s-15.47505,7.27281 -15.47505,17.68576l-0.00004,13.26433z"/>
  <circle id="svg_13" fill="#fff" r="4.42144" cy="86.21811" cx="707.33457"/>
  <path id="svg_18" fill="#ffb8b8" d="m263.522,208.32816l-58.9031,31.31559l-0.74561,-26.09629c19.22553,-3.20948 37.51669,-8.7974 54.42941,-17.8946l6.1605,-15.22008a10.31753,10.31753 0 0 1 17.53643,-2.67788l0,0a10.31753,10.31753 0 0 1 -0.90847,14.06885l-17.56916,16.50441z"/>
  <path id="svg_19" fill="#2f2e41" d="m119.59819,389.13282l0,0a11.57378,11.57378 0 0 1 1.46928,-9.36311l12.93931,-19.85777a22.61221,22.61221 0 0 1 29.335,-7.73927l0,0c-5.438,9.25647 -4.67994,17.37679 1.87806,24.43365a117.63085,117.63085 0 0 0 -27.93606,19.04492a11.57386,11.57386 0 0 1 -17.68559,-6.51842z"/>
  <path id="svg_20" fill="#2f2e41" d="m266.20475,363.16849l0,0a22.20314,22.20314 0 0 1 -18.87085,10.77909l-85.96027,0.65122l-3.728,-21.62264l38.026,-11.18413l-32.06116,-24.60507l35.04353,-41.00844l63.65,59.32431a22.20317,22.20317 0 0 1 3.90075,27.66566z"/>
  <path id="svg_21" fill="#2f2e41" d="m147.95266,511.04514l-20.13142,0c-18.07509,-123.89772 -36.47383,-248.14186 17.8946,-294.51529l64.12231,10.43852l-8.20169,54.42938l-35.7892,41.00845l-17.8946,188.63894z"/>
  <path id="svg_22" fill="#2f2e41" d="m165.64917,539.11169l0,0a11.57381,11.57381 0 0 1 -9.3632,-1.46873l-21.85854,-2.93814a22.61221,22.61221 0 0 1 -7.741,-29.33451l0,0c9.2568,5.43749 17.37707,4.67891 24.43354,-1.8795c4.98593,10.06738 13.20093,9.45331 21.04657,17.93494a11.57385,11.57385 0 0 1 -6.51737,17.68594z"/>
  <path id="svg_23" fill="#ffb8b8" d="m195.6716,133.76733l-37.28042,-8.94731c6.19168,-12.6739 6.70155,-26.77618 3.728,-41.75406l25.35068,-0.74561c0.79435,18.6254 3.19746,36.02621 8.20174,51.44698z"/>
  <path id="svg_24" fill="#6c63ff" d="m205.91752,249.41818c-27.13873,18.49308 -46.31418,0.63272 -60.94729,-26.92346c2.03338,-16.86188 -1.259,-37.04061 -7.35672,-58.96635a40.13762,40.13762 0 0 1 24.50567,-48.40124l0,0l32.06116,13.421c27.22362,22.19038 32.582,46.227 22.36825,71.5784l-10.63107,49.29165z"/>
  <path id="svg_25" fill="#ffb8b8" d="m127.82124,152.40753l-29.82434,15.65778l52.9382,31.31555l7.366,18.16951a9.63673,9.63673 0 0 1 -5.78925,12.73088l0,0a9.63673,9.63673 0 0 1 -12.76159,-8.54442l-0.74489,-12.66307l-67.2838,-22.20366a15.73306,15.73306 0 0 1 -9.87265,-9.61147l0,0a15.733,15.733 0 0 1 5.90262,-18.30258l54.10485,-37.11845l5.96485,30.56993z"/>
  <path id="svg_26" fill="#6c63ff" d="m157.64557,155.38997c-12.43861,-5.4511 -23.74934,0.47044 -38.026,5.21926l-2.23683,-39.51725c14.17612,-7.55568 27.69209,-9.59281 40.26285,-3.728l-0.00002,38.02599z"/>
  <circle id="svg_27" fill="#ffb8b8" r="23.80211" cy="78.09251" cx="172.52496"/>
  <path id="svg_28" fill="#2f2e41" d="m201,75.08928c-23.56616,2.30811 -41.52338,-1.54606 -53,-12.52007l0,-8.8377l51,0l2,21.35777z"/>
  <text xml:space="preserve" text-anchor="start" font-family="Helvetica, Arial, sans-serif" font-size="24" id="svg_31" y="-19.56394" x="275.66407" fill-opacity="null" stroke-opacity="null" stroke-width="0" stroke="null" fill="#000000">asdasdasdsa</text>
  <text stroke="null" transform="matrix(5.310041251001144,0,0,5.463679023393503,-1674.4455973480594,-763.5442245028485) " xml:space="preserve" text-anchor="start" font-family="Helvetica, Arial, sans-serif" font-size="24" id="svg_32" y="186.52475" x="376.27018" fill-opacity="null" stroke-opacity="null" stroke-width="0" fill="#000000">SARF</text>
 </g>
</svg>